<svg width="26" height="26" viewBox="0 0 26 26" fill="none" xmlns="http://www.w3.org/2000/svg">
<path d="M13.0001 22.7499C11.6318 21.5827 10.3635 20.3032 9.20842 18.9246C7.47508 16.8544 5.41675 13.7712 5.41675 10.8332C5.416 9.33277 5.86038 7.86581 6.69367 6.61801C7.52695 5.3702 8.71168 4.39764 10.0979 3.82341C11.4841 3.24918 13.0096 3.09909 14.4811 3.39213C15.9527 3.68517 17.3042 4.40818 18.3647 5.46965C19.0708 6.17258 19.6305 7.00856 20.0113 7.92922C20.3921 8.84987 20.5866 9.83692 20.5834 10.8332C20.5834 13.7712 18.5251 16.8544 16.7917 18.9246C15.6367 20.3032 14.3684 21.5827 13.0001 22.7499ZM13.0001 7.58323C12.1381 7.58323 11.3115 7.92564 10.702 8.53513C10.0925 9.14463 9.75008 9.97128 9.75008 10.8332C9.75008 11.6952 10.0925 12.5218 10.702 13.1313C11.3115 13.7408 12.1381 14.0832 13.0001 14.0832C13.862 14.0832 14.6887 13.7408 15.2982 13.1313C15.9077 12.5218 16.2501 11.6952 16.2501 10.8332C16.2501 9.97128 15.9077 9.14463 15.2982 8.53513C14.6887 7.92564 13.862 7.58323 13.0001 7.58323Z" fill="white" fill-opacity="0.66"/>
</svg>
